<?xml version="1.0" encoding="UTF-8"?>
<svg version="1.1" xmlns="http://www.w3.org/2000/svg" width="2000" height="2000">
<path d="M0 0 C0.7330089 -0.00486483 1.4660178 -0.00972965 2.22123909 -0.0147419 C7.76597685 -0.05103872 13.31062184 -0.06743529 18.85546875 -0.07421875 C20.07856121 -0.07594463 20.07856121 -0.07594463 21.32636261 -0.07770538 C47.417297 -0.10327632 73.17897404 0.47089967 99.04296875 4.23828125 C99.79982971 4.34718689 100.55669067 4.45609253 101.33648682 4.56829834 C163.28455828 13.56390127 223.06105158 32.17337033 279.04296875 60.23828125 C279.99300781 60.71201172 280.94304688 61.18574219 281.921875 61.67382812 C303.36983559 72.42731043 324.38327977 84.46019042 344.04296875 98.23828125 C344.76758301 98.74407715 345.49219727 99.24987305 346.23876953 99.77099609 C360.67248131 109.86043478 360.67248131 109.86043478 362.56882834 111.79444915 C366.38802344 114.02321372 370.05954034 113.65332799 374.40582657 113.62304211 C375.85124401 113.63076697 375.85124401 113.63076697 377.32586181 113.63864788 C380.57985679 113.65234764 383.83345323 113.64455934 387.08746338 113.63700867 C389.43380552 113.64244377 391.78014492 113.6491935 394.12647986 113.65715057 C399.91453381 113.67335169 405.70247746 113.67557806 411.49055025 113.67203599 C418.42137111 113.66858304 425.3521287 113.68250457 432.28293115 113.69710282 C445.07434404 113.72355812 457.86573526 113.73606426 470.65717316 113.74066734 C483.32541573 113.74527151 495.99362819 113.7560468 508.6618576 113.77509499 C509.44902762 113.77627511 510.23619763 113.77745524 511.04722128 113.77867113 C515.04473109 113.78469641 519.04224073 113.79083224 523.03975031 113.79701064 C551.36666151 113.84059267 579.693572 113.87029142 608.02050781 113.8918457 C635.54265423 113.91281934 663.06478271 113.94006903 690.58691406 113.97583008 C691.85906054 113.97747929 691.85906054 113.97747929 693.15690695 113.97916183 C701.67371978 113.99021 710.19053244 114.00138592 718.70734498 114.01265545 C736.0576423 114.03561062 753.40794067 114.05771303 770.75823975 114.07929993 C771.55600829 114.08029355 772.35377684 114.08128716 773.1757202 114.08231089 C826.46478899 114.14858455 879.75387759 114.19429591 933.04296875 114.23828125 C933.04296875 137.33828125 933.04296875 160.43828125 933.04296875 184.23828125 C895.02166799 185.43110637 857.08793173 185.30834564 819.04296875 185.23828125 C819.04296875 207.67828125 819.04296875 230.11828125 819.04296875 253.23828125 C843.46296875 253.23828125 867.88296875 253.23828125 893.04296875 253.23828125 C893.04296875 276.33828125 893.04296875 299.43828125 893.04296875 323.23828125 C820.77296875 323.23828125 748.50296875 323.23828125 674.04296875 323.23828125 C674.04296875 346.00828125 674.04296875 368.77828125 674.04296875 392.23828125 C781.29296875 392.23828125 888.54296875 392.23828125 999.04296875 392.23828125 C999.04296875 415.33828125 999.04296875 438.43828125 999.04296875 462.23828125 C930.07296875 462.23828125 861.10296875 462.23828125 790.04296875 462.23828125 C790.04296875 485.00828125 790.04296875 507.77828125 790.04296875 531.23828125 C844.16296875 531.23828125 898.28296875 531.23828125 954.04296875 531.23828125 C954.62611988 554.56432633 954.82031479 577.91790009 954.04296875 601.23828125 C832.27296875 601.23828125 710.50296875 601.23828125 585.04296875 601.23828125 C585.04296875 623.67828125 585.04296875 646.11828125 585.04296875 669.23828125 C594.27031982 669.23304443 603.4976709 669.22780762 613.00463867 669.22241211 C642.67383723 669.20629436 672.34303581 669.19520991 702.01223762 669.18721592 C706.63616949 669.18596551 711.26010135 669.18467116 715.8840332 669.18334961 C716.80440891 669.1830873 717.72478462 669.18282499 718.6730505 669.18255473 C733.49196816 669.17822698 748.31088186 669.17035569 763.12979718 669.16112845 C778.384013 669.1517108 793.63822678 669.14620865 808.89244539 669.14419276 C817.43997555 669.14295479 825.98749745 669.14000213 834.53502464 669.13255119 C867.38701414 669.10470734 900.20570595 669.08167321 933.04296875 670.23828125 C933.04296875 693.00828125 933.04296875 715.77828125 933.04296875 739.23828125 C895.02166799 740.43110637 857.08793173 740.30834564 819.04296875 740.23828125 C819.04296875 762.67828125 819.04296875 785.11828125 819.04296875 808.23828125 C843.46296875 808.23828125 867.88296875 808.23828125 893.04296875 808.23828125 C893.04296875 831.33828125 893.04296875 854.43828125 893.04296875 878.23828125 C865.98554087 879.00912596 839.00619423 879.34134138 811.94243884 879.1377461 C807.06330316 879.10243721 802.18412424 879.0744944 797.3049469 879.04563904 C788.14062292 878.99038893 778.97635295 878.92889096 769.81208616 878.8649177 C759.34703656 878.79218556 748.88194476 878.72676962 738.41684425 878.66184723 C716.95882853 878.52857041 695.50089342 878.38553464 674.04296875 878.23828125 C674.04296875 899.02828125 674.04296875 919.81828125 674.04296875 941.23828125 C697.80296875 941.23828125 721.56296875 941.23828125 746.04296875 941.23828125 C746.04296875 971.59828125 746.04296875 1001.95828125 746.04296875 1033.23828125 C728.8562207 1033.18945801 728.8562207 1033.18945801 711.32226562 1033.13964844 C674.63102239 1033.04388802 637.93993224 1033.00725576 601.24856904 1033.00767957 C595.54608371 1033.00769137 589.84359854 1033.00718095 584.14111328 1033.00634766 C583.00588602 1033.00619055 581.87065876 1033.00603344 580.70103067 1033.00587156 C562.33705406 1033.00208569 543.97341568 1032.95602736 525.60955304 1032.8942531 C506.75626024 1032.83177694 487.90332194 1032.81494557 469.04994059 1032.84018636 C457.42293157 1032.8543229 445.79709966 1032.83316787 434.17026925 1032.76637909 C426.18936505 1032.72394994 418.2092307 1032.72599408 410.22830033 1032.76243451 C405.6281727 1032.78214287 401.03020802 1032.78279637 396.43028831 1032.73044014 C373.31555466 1031.63967007 373.31555466 1031.63967007 353.44519281 1041.64152122 C352.44382111 1042.66698528 351.4584447 1043.70840065 350.49252796 1044.76732779 C348.05557837 1047.24024467 345.2409368 1048.94687039 342.3203125 1050.8125 C341.27552734 1051.49497803 340.23074219 1052.17745605 339.15429688 1052.88061523 C338.10693359 1053.55552002 337.05957031 1054.2304248 335.98046875 1054.92578125 C334.84562744 1055.66142298 333.71086296 1056.39718323 332.57617188 1057.13305664 C324.50400264 1062.35444929 316.38174299 1067.45415462 308.04296875 1072.23828125 C307.43340332 1072.5930957 306.82383789 1072.94791016 306.19580078 1073.31347656 C280.5262789 1088.20998129 253.76255438 1100.6986579 226.04296875 1111.23828125 C224.24931885 1111.92229004 224.24931885 1111.92229004 222.41943359 1112.62011719 C171.38893102 1131.8830527 118.2633365 1142.31959249 64.04296875 1147.23828125 C62.89062744 1147.34430664 61.73828613 1147.45033203 60.55102539 1147.55957031 C47.84434684 1148.56664746 35.09415462 1148.48205067 22.35546875 1148.48828125 C20.49190735 1148.48929337 20.49190735 1148.48929337 18.59069824 1148.49032593 C-2.08325535 1148.47255453 -22.43243176 1147.69356376 -42.95703125 1145.23828125 C-43.68525085 1145.15342468 -44.41347046 1145.06856812 -45.16375732 1144.98114014 C-110.3121625 1137.38211018 -172.87524421 1118.66940954 -231.95703125 1090.23828125 C-232.9517041 1089.7602002 -233.94637695 1089.28211914 -234.97119141 1088.78955078 C-237.78473664 1087.42969393 -240.59144947 1086.05706199 -243.39453125 1084.67578125 C-244.22355957 1084.27020996 -245.05258789 1083.86463867 -245.90673828 1083.44677734 C-246.6645459 1083.06730957 -247.42235352 1082.6878418 -248.203125 1082.296875 C-248.85982178 1081.97001709 -249.51651855 1081.64315918 -250.19311523 1081.30639648 C-251.95703125 1080.23828125 -251.95703125 1080.23828125 -253.36621094 1078.80224609 C-255.4244892 1076.7787147 -257.64693283 1075.56807582 -260.1640625 1074.15625 C-261.21464844 1073.56118652 -262.26523437 1072.96612305 -263.34765625 1072.35302734 C-264.476875 1071.71703613 -265.60609375 1071.08104492 -266.76953125 1070.42578125 C-285.56428732 1059.72582875 -303.60263816 1048.15562073 -320.95703125 1035.23828125 C-322.10012331 1034.39434551 -323.24334294 1033.55058252 -324.38671875 1032.70703125 C-334.6542732 1025.07821217 -344.51044689 1017.00236833 -354.23632812 1008.70019531 C-355.96390915 1007.23243777 -357.70152297 1005.77736149 -359.44140625 1004.32421875 C-366.11658404 998.71873936 -372.43831686 992.90867277 -378.54150391 986.68334961 C-381.21252705 983.96224995 -383.88218931 981.35003888 -386.83203125 978.92578125 C-389.90329758 976.39385925 -392.3790852 973.52723781 -394.94921875 970.49609375 C-397.30137325 967.85106398 -399.80121434 965.40020112 -402.33203125 962.92578125 C-406.81156477 958.525545 -410.81784836 953.87667922 -414.7265625 948.96484375 C-416.95609814 946.23942189 -419.29840004 943.68093642 -421.70703125 941.11328125 C-428.32539012 933.9025384 -434.11097404 926.07802341 -439.95703125 918.23828125 C-440.54597168 917.45291992 -441.13491211 916.66755859 -441.74169922 915.85839844 C-493.63597653 846.60052333 -528.78933709 766.54086872 -551.20703125 645.86328125 C-551.35833496 644.67798828 -551.50963867 643.49269531 -551.66552734 642.27148438 C-552.14395781 638.26456165 -552.56804355 634.25467396 -552.95703125 630.23828125 C-553.04423431 629.34289642 -553.13143738 628.4475116 -553.22128296 627.5249939 C-554.87534264 609.97573541 -555.32226589 592.49272538 -555.27488708 574.87466812 C-555.26944038 572.76559521 -555.26707759 570.65653354 -555.26501465 568.54745483 C-555.23266127 547.30712108 -554.58221158 526.33399046 -551.95703125 505.23828125 C-551.82312988 504.05218262 -551.68922852 502.86608398 -551.55126953 501.64404297 C-542.63157035 422.68578461 -515.36661438 342.47220495 -472.95703125 275.23828125 C-472.43496094 274.40200195 -471.91289062 273.56572266 -471.375 272.70410156 C-464.65450677 261.94448571 -457.85527231 251.28840663 -450.31445312 241.08300781 C-448.77080299 238.98519838 -447.24684507 236.87370734 -445.72265625 234.76171875 C-435.78652915 221.0560411 -425.32714398 207.83573947 -413.88671875 195.34765625 C-412.10532729 193.40038623 -410.36943355 191.42303654 -408.64453125 189.42578125 C-400.47762101 180.09216955 -391.9620654 171.14634374 -383.20703125 162.36328125 C-382.41522461 161.56688232 -381.62341797 160.7704834 -380.80761719 159.94995117 C-376.57512287 155.72852046 -372.26194989 151.66973322 -367.73046875 147.77099609 C-365.37546228 145.73565322 -363.10835492 143.61089818 -360.83203125 141.48828125 C-355.62638488 136.74153483 -350.18408539 132.38981907 -344.61328125 128.08203125 C-341.55465258 125.7161689 -338.54651605 123.29410512 -335.54638672 120.85473633 C-321.34934575 109.34295995 -306.430973 98.95328716 -290.95703125 89.23828125 C-289.84972656 88.5421875 -288.74242187 87.84609375 -287.6015625 87.12890625 C-279.53237512 82.11698862 -271.36421955 77.26941674 -263.14550781 72.50732422 C-261.72617657 71.68428944 -260.30873394 70.85798569 -258.89355469 70.02783203 C-226.58265204 51.13206937 -190.29962304 36.0963428 -154.45703125 25.36328125 C-153.75260895 25.15173401 -153.04818665 24.94018677 -152.32241821 24.722229 C-112.73731578 12.87863197 -72.22333537 4.22942735 -30.95703125 1.23828125 C-29.2972374 1.11129852 -29.2972374 1.11129852 -27.60391235 0.98175049 C-18.40085701 0.31346884 -9.22686156 0.04739222 0 0 Z M473.04296875 323.23828125 C473.04296875 346.00828125 473.04296875 368.77828125 473.04296875 392.23828125 C515.94296875 392.23828125 558.84296875 392.23828125 603.04296875 392.23828125 C603.04296875 369.46828125 603.04296875 346.69828125 603.04296875 323.23828125 C560.14296875 323.23828125 517.24296875 323.23828125 473.04296875 323.23828125 Z M585.04296875 462.23828125 C585.04296875 485.00828125 585.04296875 507.77828125 585.04296875 531.23828125 C629.59296875 531.23828125 674.14296875 531.23828125 720.04296875 531.23828125 C720.04296875 508.46828125 720.04296875 485.69828125 720.04296875 462.23828125 C675.49296875 462.23828125 630.94296875 462.23828125 585.04296875 462.23828125 Z " fill="#0094D9" transform="translate(708.95703125,424.76171875)"/>
<path d="M0 0 C0.97356371 -0.00350607 1.94712741 -0.00701215 2.95019305 -0.01062447 C6.2140423 -0.01993186 9.47771287 -0.01501677 12.74156952 -0.01015663 C15.10470777 -0.01389323 17.46784478 -0.01849479 19.83097982 -0.02388728 C25.64556468 -0.03484807 31.46010014 -0.03648768 37.27469366 -0.03416557 C44.24126547 -0.03189087 51.2078099 -0.04117928 58.17437383 -0.0507243 C72.61958139 -0.07006302 87.06477475 -0.07569251 101.50999373 -0.07683842 C112.668136 -0.07775777 123.82627269 -0.08187586 134.98441315 -0.08823967 C138.19722159 -0.09003479 141.41003004 -0.09181442 144.6228385 -0.09358943 C145.4215795 -0.09403152 146.22032051 -0.09447362 147.04326579 -0.09492911 C169.51048192 -0.10723745 191.97769612 -0.11513027 214.44491577 -0.11424255 C215.71546102 -0.11419582 215.71546102 -0.11419582 217.01167385 -0.11414814 C221.30467912 -0.11398192 225.5976844 -0.11378384 229.89068967 -0.11357872 C230.74327916 -0.11353883 231.59586866 -0.11349894 232.47429419 -0.11345784 C234.19843928 -0.11337697 235.92258437 -0.11329337 237.64672946 -0.11320706 C264.46087591 -0.11198204 291.27497174 -0.12698572 318.0891037 -0.15435219 C348.22306471 -0.18509427 378.35699246 -0.20228334 408.49097013 -0.20042574 C411.70629342 -0.20027649 414.92161671 -0.20017907 418.13694 -0.20011711 C418.92861761 -0.2000938 419.72029521 -0.20007049 420.53596305 -0.20004648 C433.25993841 -0.19998501 445.98386973 -0.21274095 458.70783202 -0.22998164 C471.50440218 -0.24696161 484.30090813 -0.24889355 497.09748334 -0.235763 C504.02598632 -0.22903641 510.95434428 -0.22858263 517.88283157 -0.2464695 C524.23163115 -0.26221198 530.58014566 -0.25932405 536.92893833 -0.24190123 C539.21968332 -0.23883396 541.51044964 -0.24245333 543.80116946 -0.25362138 C567.57711325 -0.36181422 586.58173237 3.62366773 604.43578339 20.46430016 C613.43913006 29.74467288 620.01232223 41.22676956 621.09593964 54.25726891 C622.82843964 54.50476891 622.82843964 54.50476891 624.59593964 54.75726891 C635.54243638 57.20331651 646.30288734 63.27027187 654.09593964 71.25726891 C654.76883026 71.87215172 655.44172089 72.48703453 656.13500214 73.12055016 C666.97320971 83.24838832 673.32512555 97.34057149 674.28177309 112.13023281 C674.35216371 115.33627002 674.36259662 118.53692738 674.34990692 121.7437191 C674.3530269 122.96618985 674.35614688 124.18866059 674.35936141 125.44817591 C674.36592491 128.8154266 674.36360821 132.18245191 674.35738897 135.54968858 C674.35284391 139.19119086 674.35985839 142.83267415 674.36534882 146.47417259 C674.37422261 153.59762079 674.3723298 160.72102675 674.36652353 167.84447658 C674.36199911 173.63601329 674.36139752 179.42753819 674.36357117 185.21907616 C674.36387763 186.04466704 674.3641841 186.87025792 674.36449985 187.72086671 C674.36513933 189.39825706 674.36578776 191.07564741 674.36644503 192.75303775 C674.37214243 208.4665416 674.36559971 224.18002207 674.3548443 239.89352208 C674.34590933 253.36422934 674.34746154 266.83490212 674.35668182 280.30560875 C674.36739489 295.96448951 674.37159316 311.6233498 674.3654573 327.28223372 C674.36482023 328.95330969 674.36419148 330.62438567 674.36357117 332.29546165 C674.36326262 333.11757363 674.36295406 333.9396856 674.36263616 334.78671005 C674.36091234 340.56849172 674.36381759 346.35026037 674.36853027 352.13204002 C674.37415063 359.18209477 674.37259841 366.232105 674.36196879 373.28215468 C674.3567276 376.87631086 674.35462873 380.47039293 674.36126709 384.06454849 C674.36836505 387.96668009 674.3598659 391.86869144 674.34990692 395.77081871 C674.35436836 396.89826264 674.35882981 398.02570657 674.36342645 399.18731546 C674.27418431 417.24415118 667.90276763 433.1629495 655.53343964 446.44476891 C647.64246466 453.9656679 639.059055 458.55319373 628.59593964 461.25726891 C624.17157405 462.65737873 624.17157405 462.65737873 621.00218964 465.86810875 C619.09555173 469.86732285 617.92045111 474.0891502 616.70384979 478.33783531 C612.38226414 491.98293828 599.51394528 503.34352683 587.22093964 509.75726891 C571.9996264 516.5582812 557.06846814 516.6919392 540.72878265 516.64494896 C538.36046499 516.64912616 535.99214933 516.6546058 533.62383735 516.66126877 C527.81970999 516.67418284 522.01570243 516.67324586 516.21156757 516.66630639 C509.25269895 516.65876324 502.29388181 516.66868352 495.33502066 516.67900958 C481.70166068 516.69864184 468.06833878 516.70103052 454.43496803 516.69581438 C442.50270773 516.69125151 430.57046248 516.69186348 418.63820267 516.69765472 C417.03563608 516.6984116 415.43306948 516.69916758 413.83050289 516.69992267 C411.41537644 516.7010679 409.00024999 516.70221778 406.58512354 516.70338191 C384.14147294 516.71408166 361.69782733 516.71881754 339.25417519 516.71091175 C338.40874112 516.71061458 337.56330704 516.7103174 336.69225376 516.71001123 C329.82738796 516.70756246 322.96252222 516.70495079 316.09765648 516.70232709 C289.32280907 516.69222533 262.54802439 516.70058085 235.77318573 516.72382164 C205.66774419 516.74991135 175.56234039 516.76273766 145.45688713 516.75563389 C142.24502747 516.75491786 139.03316781 516.75424347 135.82130814 516.75359344 C135.03050953 516.75342364 134.23971093 516.75325383 133.42494873 516.75307887 C121.50400702 516.75077892 109.58310043 516.75873829 97.6621666 516.77188492 C84.10052201 516.78681459 70.5389596 516.78761462 56.97731675 516.76981401 C50.06092677 516.76110869 43.14467966 516.75863334 36.22829819 516.77446556 C29.89083527 516.78831763 23.55366337 516.78354225 17.21621726 516.76422632 C14.9296914 516.76046769 12.64314219 516.76338424 10.35663714 516.77383798 C-12.15385559 516.86939588 -30.83839975 513.70476202 -47.72437286 497.53851891 C-54.43401776 490.51623823 -60.3323688 482.67897838 -62.67749786 473.09711266 C-63.47612146 469.84331454 -64.23551756 467.16834358 -65.90406036 464.25726891 C-68.79337831 462.61642168 -71.46349657 461.8830237 -74.68531036 461.08930016 C-88.1175711 457.61712596 -100.52193111 446.7353897 -107.90406036 435.25726891 C-114.20406612 423.79050918 -117.20520346 413.87995579 -117.17821503 400.77886009 C-117.18345171 399.52093936 -117.18868838 398.26301863 -117.19408375 396.96697909 C-117.20822147 393.48671522 -117.20992785 390.00654085 -117.20948684 386.52625239 C-117.21113883 382.76804433 -117.22421258 379.00987274 -117.23567963 375.25168419 C-117.25850069 367.0386112 -117.26644734 358.82556411 -117.27150607 350.61246371 C-117.2747669 345.47964771 -117.28129178 340.34683918 -117.28850746 335.2140274 C-117.30807076 320.98999683 -117.32447617 306.76597319 -117.327384 292.54192829 C-117.32757156 291.63220413 -117.32775913 290.72247997 -117.32795239 289.78518841 C-117.32831863 287.94111478 -117.32868233 286.09704116 -117.3290435 284.25296753 C-117.32922631 283.33762185 -117.32940912 282.42227616 -117.32959747 281.47919273 C-117.32977802 280.56272363 -117.32995857 279.64625452 -117.33014459 278.70201362 C-117.33368407 263.86147333 -117.36069347 249.02107834 -117.39809536 234.18058842 C-117.43622825 218.92738406 -117.45554184 203.6742517 -117.45584351 188.42099863 C-117.45642701 179.86361742 -117.46484941 171.30640949 -117.49384117 162.74907303 C-117.51842196 155.46039007 -117.52559308 148.17194358 -117.51059365 140.88323032 C-117.50345157 137.16896047 -117.50416386 133.4551569 -117.52700424 129.74094009 C-117.55160309 125.70180965 -117.536883 121.6637281 -117.5187912 117.62456322 C-117.53199117 116.46781481 -117.54519113 115.31106641 -117.5587911 114.11926502 C-117.38167365 96.70729443 -109.0004328 82.25513668 -96.90406036 70.25726891 C-91.53666437 65.15732048 -85.8673837 61.4828854 -79.21656036 58.31976891 C-78.59893829 58.02497643 -77.98131622 57.73018394 -77.34497833 57.42645836 C-73.14378308 55.53799696 -69.43349778 54.71660851 -64.90406036 54.25726891 C-64.76677521 52.52090172 -64.76677521 52.52090172 -64.62671661 50.74945641 C-64.04278823 46.13286779 -62.47797932 42.48159821 -60.34156036 38.38226891 C-59.98513458 37.68754478 -59.6287088 36.99282066 -59.26148224 36.2770443 C-50.26123527 19.25526789 -36.06745136 8.17591816 -17.90406036 2.25726891 C-11.79054159 0.46586649 -6.35236739 -0.0291658 0 0 Z " fill="#0194D9" transform="translate(426.90406036376953,678.7427310943604)"/>
<path d="M0 0 C0.97356371 -0.00350607 1.94712741 -0.00701215 2.95019305 -0.01062447 C6.2140423 -0.01993186 9.47771287 -0.01501677 12.74156952 -0.01015663 C15.10470777 -0.01389323 17.46784478 -0.01849479 19.83097982 -0.02388728 C25.64556468 -0.03484807 31.46010014 -0.03648768 37.27469366 -0.03416557 C44.24126547 -0.03189087 51.2078099 -0.04117928 58.17437383 -0.0507243 C72.61958139 -0.07006302 87.06477475 -0.07569251 101.50999373 -0.07683842 C112.668136 -0.07775777 123.82627269 -0.08187586 134.98441315 -0.08823967 C138.19722159 -0.09003479 141.41003004 -0.09181442 144.6228385 -0.09358943 C145.4215795 -0.09403152 146.22032051 -0.09447362 147.04326579 -0.09492911 C169.51048192 -0.10723745 191.97769612 -0.11513027 214.44491577 -0.11424255 C215.71546102 -0.11419582 215.71546102 -0.11419582 217.01167385 -0.11414814 C221.30467912 -0.11398192 225.5976844 -0.11378384 229.89068967 -0.11357872 C230.74327916 -0.11353883 231.59586866 -0.11349894 232.47429419 -0.11345784 C234.19843928 -0.11337697 235.92258437 -0.11329337 237.64672946 -0.11320706 C264.46087591 -0.11198204 291.27497174 -0.12698572 318.0891037 -0.15435219 C348.22306471 -0.18509427 378.35699246 -0.20228334 408.49097013 -0.20042574 C411.70629342 -0.20027649 414.92161671 -0.20017907 418.13694 -0.20011711 C418.92861761 -0.2000938 419.72029521 -0.20007049 420.53596305 -0.20004648 C433.25993841 -0.19998501 445.98386973 -0.21274095 458.70783202 -0.22998164 C471.50440218 -0.24696161 484.30090813 -0.24889355 497.09748334 -0.235763 C504.02598632 -0.22903641 510.95434428 -0.22858263 517.88283157 -0.2464695 C524.23163115 -0.26221198 530.58014566 -0.25932405 536.92893833 -0.24190123 C539.21968332 -0.23883396 541.51044964 -0.24245333 543.80116946 -0.25362138 C567.57711325 -0.36181422 586.58173237 3.62366773 604.43578339 20.46430016 C613.43913006 29.74467288 620.01232223 41.22676956 621.09593964 54.25726891 C622.82843964 54.50476891 622.82843964 54.50476891 624.59593964 54.75726891 C635.54243638 57.20331651 646.30288734 63.27027187 654.09593964 71.25726891 C654.76883026 71.87215172 655.44172089 72.48703453 656.13500214 73.12055016 C666.97320971 83.24838832 673.32512555 97.34057149 674.28177309 112.13023281 C674.35216371 115.33627002 674.36259662 118.53692738 674.34990692 121.7437191 C674.3530269 122.96618985 674.35614688 124.18866059 674.35936141 125.44817591 C674.36592491 128.8154266 674.36360821 132.18245191 674.35738897 135.54968858 C674.35284391 139.19119086 674.35985839 142.83267415 674.36534882 146.47417259 C674.37422261 153.59762079 674.3723298 160.72102675 674.36652353 167.84447658 C674.36199911 173.63601329 674.36139752 179.42753819 674.36357117 185.21907616 C674.36387763 186.04466704 674.3641841 186.87025792 674.36449985 187.72086671 C674.36513933 189.39825706 674.36578776 191.07564741 674.36644503 192.75303775 C674.37214243 208.4665416 674.36559971 224.18002207 674.3548443 239.89352208 C674.34590933 253.36422934 674.34746154 266.83490212 674.35668182 280.30560875 C674.36739489 295.96448951 674.37159316 311.6233498 674.3654573 327.28223372 C674.36482023 328.95330969 674.36419148 330.62438567 674.36357117 332.29546165 C674.36326262 333.11757363 674.36295406 333.9396856 674.36263616 334.78671005 C674.36091234 340.56849172 674.36381759 346.35026037 674.36853027 352.13204002 C674.37415063 359.18209477 674.37259841 366.232105 674.36196879 373.28215468 C674.3567276 376.87631086 674.35462873 380.47039293 674.36126709 384.06454849 C674.36836505 387.96668009 674.3598659 391.86869144 674.34990692 395.77081871 C674.35436836 396.89826264 674.35882981 398.02570657 674.36342645 399.18731546 C674.27418431 417.24415118 667.90276763 433.1629495 655.53343964 446.44476891 C647.64246466 453.9656679 639.059055 458.55319373 628.59593964 461.25726891 C624.17157405 462.65737873 624.17157405 462.65737873 621.00218964 465.86810875 C619.09555173 469.86732285 617.92045111 474.0891502 616.70384979 478.33783531 C612.38226414 491.98293828 599.51394528 503.34352683 587.22093964 509.75726891 C571.9996264 516.5582812 557.06846814 516.6919392 540.72878265 516.64494896 C538.36046499 516.64912616 535.99214933 516.6546058 533.62383735 516.66126877 C527.81970999 516.67418284 522.01570243 516.67324586 516.21156757 516.66630639 C509.25269895 516.65876324 502.29388181 516.66868352 495.33502066 516.67900958 C481.70166068 516.69864184 468.06833878 516.70103052 454.43496803 516.69581438 C442.50270773 516.69125151 430.57046248 516.69186348 418.63820267 516.69765472 C417.03563608 516.6984116 415.43306948 516.69916758 413.83050289 516.69992267 C411.41537644 516.7010679 409.00024999 516.70221778 406.58512354 516.70338191 C384.14147294 516.71408166 361.69782733 516.71881754 339.25417519 516.71091175 C338.40874112 516.71061458 337.56330704 516.7103174 336.69225376 516.71001123 C329.82738796 516.70756246 322.96252222 516.70495079 316.09765648 516.70232709 C289.32280907 516.69222533 262.54802439 516.70058085 235.77318573 516.72382164 C205.66774419 516.74991135 175.56234039 516.76273766 145.45688713 516.75563389 C142.24502747 516.75491786 139.03316781 516.75424347 135.82130814 516.75359344 C135.03050953 516.75342364 134.23971093 516.75325383 133.42494873 516.75307887 C121.50400702 516.75077892 109.58310043 516.75873829 97.6621666 516.77188492 C84.10052201 516.78681459 70.5389596 516.78761462 56.97731675 516.76981401 C50.06092677 516.76110869 43.14467966 516.75863334 36.22829819 516.77446556 C29.89083527 516.78831763 23.55366337 516.78354225 17.21621726 516.76422632 C14.9296914 516.76046769 12.64314219 516.76338424 10.35663714 516.77383798 C-12.15385559 516.86939588 -30.83839975 513.70476202 -47.72437286 497.53851891 C-54.43401776 490.51623823 -60.3323688 482.67897838 -62.67749786 473.09711266 C-63.47612146 469.84331454 -64.23551756 467.16834358 -65.90406036 464.25726891 C-68.79337831 462.61642168 -71.46349657 461.8830237 -74.68531036 461.08930016 C-88.1175711 457.61712596 -100.52193111 446.7353897 -107.90406036 435.25726891 C-114.20406612 423.79050918 -117.20520346 413.87995579 -117.17821503 400.77886009 C-117.18345171 399.52093936 -117.18868838 398.26301863 -117.19408375 396.96697909 C-117.20822147 393.48671522 -117.20992785 390.00654085 -117.20948684 386.52625239 C-117.21113883 382.76804433 -117.22421258 379.00987274 -117.23567963 375.25168419 C-117.25850069 367.0386112 -117.26644734 358.82556411 -117.27150607 350.61246371 C-117.2747669 345.47964771 -117.28129178 340.34683918 -117.28850746 335.2140274 C-117.30807076 320.98999683 -117.32447617 306.76597319 -117.327384 292.54192829 C-117.32757156 291.63220413 -117.32775913 290.72247997 -117.32795239 289.78518841 C-117.32831863 287.94111478 -117.32868233 286.09704116 -117.3290435 284.25296753 C-117.32922631 283.33762185 -117.32940912 282.42227616 -117.32959747 281.47919273 C-117.32977802 280.56272363 -117.32995857 279.64625452 -117.33014459 278.70201362 C-117.33368407 263.86147333 -117.36069347 249.02107834 -117.39809536 234.18058842 C-117.43622825 218.92738406 -117.45554184 203.6742517 -117.45584351 188.42099863 C-117.45642701 179.86361742 -117.46484941 171.30640949 -117.49384117 162.74907303 C-117.51842196 155.46039007 -117.52559308 148.17194358 -117.51059365 140.88323032 C-117.50345157 137.16896047 -117.50416386 133.4551569 -117.52700424 129.74094009 C-117.55160309 125.70180965 -117.536883 121.6637281 -117.5187912 117.62456322 C-117.53199117 116.46781481 -117.54519113 115.31106641 -117.5587911 114.11926502 C-117.38167365 96.70729443 -109.0004328 82.25513668 -96.90406036 70.25726891 C-91.53666437 65.15732048 -85.8673837 61.4828854 -79.21656036 58.31976891 C-78.59893829 58.02497643 -77.98131622 57.73018394 -77.34497833 57.42645836 C-73.14378308 55.53799696 -69.43349778 54.71660851 -64.90406036 54.25726891 C-64.76677521 52.52090172 -64.76677521 52.52090172 -64.62671661 50.74945641 C-64.04278823 46.13286779 -62.47797932 42.48159821 -60.34156036 38.38226891 C-59.98513458 37.68754478 -59.6287088 36.99282066 -59.26148224 36.2770443 C-50.26123527 19.25526789 -36.06745136 8.17591816 -17.90406036 2.25726891 C-11.79054159 0.46586649 -6.35236739 -0.0291658 0 0 Z M-81.91577911 94.61664391 C-88.75257084 103.84702938 -90.35280029 112.10434936 -90.29846954 123.45142174 C-90.30456065 124.65458715 -90.31065175 125.85775257 -90.31692743 127.09737754 C-90.33063909 130.41557875 -90.33102612 133.73328214 -90.32555246 137.05147386 C-90.32287198 140.63853915 -90.33743317 144.22554222 -90.34964752 147.81258202 C-90.37066168 154.83223531 -90.37524465 161.85180595 -90.37345964 168.87148699 C-90.37214985 174.58055328 -90.37596717 180.28959387 -90.3833847 185.99865532 C-90.385484 187.64579447 -90.3875816 189.29293362 -90.38967752 190.94007277 C-90.39072105 191.76001659 -90.39176458 192.57996041 -90.39283973 193.42475101 C-90.4117263 208.91897504 -90.41069692 224.41315169 -90.4038704 239.90738246 C-90.3982975 254.06302862 -90.41911236 268.21849365 -90.45223087 282.3740975 C-90.48601521 296.92789048 -90.50113021 311.48159681 -90.49651384 326.03542972 C-90.49427376 334.19870956 -90.4994444 342.36182206 -90.52440643 350.52506828 C-90.54548109 357.47594766 -90.54895089 364.42656795 -90.53010684 371.37745818 C-90.52098625 374.91947082 -90.51969139 378.46100121 -90.54046249 382.00297546 C-90.5627945 385.85394016 -90.5458636 389.70419421 -90.52552032 393.5551815 C-90.53803817 394.65900523 -90.55055602 395.76282897 -90.5634532 396.9001019 C-90.44163916 407.71327717 -87.3095219 417.74953838 -79.66577911 425.60883141 C-79.08441193 426.15281578 -78.50304474 426.69680016 -77.90406036 427.25726891 C-77.37425568 427.76000328 -76.84445099 428.26273766 -76.29859161 428.78070641 C-73.35141697 431.40210082 -70.56529594 432.88892834 -66.90406036 434.25726891 C-66.88947784 433.51154625 -66.87489532 432.76582359 -66.85987091 431.99750328 C-66.78490699 428.5835985 -66.68840598 425.17062022 -66.59156036 421.75726891 C-66.56900177 420.58422203 -66.54644318 419.41117516 -66.52320099 418.20258141 C-66.24882634 409.32281996 -65.37879034 402.35696875 -59.21656036 395.50726891 C-58.59394318 394.79055016 -57.97132599 394.07383141 -57.32984161 393.33539391 C-50.63417816 387.59933439 -44.44085202 386.6744718 -35.80914402 386.75390434 C-34.70685511 386.74809058 -33.60456621 386.74227682 -32.4688746 386.73628688 C-28.76704021 386.72166332 -25.06586637 386.73558401 -21.36403656 386.74933434 C-18.68653142 386.74472636 -16.00907212 386.73853836 -13.33157963 386.73042536 C-7.50597208 386.71598394 -1.68051282 386.71641348 4.14510155 386.726614 C12.80800439 386.74174132 21.4707821 386.73401035 30.1336841 386.72178077 C45.60567626 386.70071192 61.07760237 386.70254577 76.54960082 386.71409642 C90.08995207 386.72415545 103.6302791 386.72678694 117.17063332 386.72200584 C118.06851634 386.7217003 118.96639936 386.72139476 119.89149095 386.72107996 C123.53622809 386.71983462 127.18096521 386.71856103 130.82570232 386.71724091 C165.02289062 386.70500232 199.22003683 386.71610268 233.41721863 386.7376285 C263.80274258 386.75660958 294.18819948 386.75491407 324.57372284 386.73578453 C358.70653168 386.71436771 392.83930333 386.70587186 426.97211796 386.71823359 C430.61055536 386.71951647 434.24899277 386.72076783 437.88743019 386.72200584 C438.78331604 386.72232215 439.67920189 386.72263846 440.6022358 386.72296436 C454.1337465 386.72751512 467.66523032 386.72219149 481.19673729 386.71208763 C496.58276262 386.70065635 511.96871153 386.70349754 527.35472732 386.72521061 C535.96679275 386.73696308 544.57869273 386.73771203 553.1907539 386.72262591 C558.94253169 386.71366112 564.69417675 386.71922992 570.44593486 386.73664499 C573.72366769 386.746165 577.00100608 386.74720741 580.27873986 386.73502105 C583.8112049 386.72289253 587.34276466 386.73529797 590.87518215 386.75390434 C591.89047244 386.74453968 592.90576273 386.73517501 593.95181939 386.72552657 C601.5558446 386.80581143 607.61024395 388.48382063 613.61937714 393.26508141 C614.23039276 393.96375328 614.84140839 394.66242516 615.47093964 395.38226891 C616.09742401 396.06547203 616.72390839 396.74867516 617.36937714 397.45258141 C622.20629674 405.30983995 622.59179538 413.86951327 622.78343964 422.88226891 C622.81759979 423.98183922 622.85175995 425.08140953 622.88695526 426.21430016 C622.96854749 428.89518754 623.03798063 431.57578438 623.09593964 434.25726891 C634.01219478 428.99131736 640.18041291 423.14965862 645.15808296 411.84507942 C646.51539524 406.6526237 646.37795033 401.63563269 646.36336517 396.28980064 C646.36789629 395.07483115 646.3724274 393.85986166 646.37709582 392.6080749 C646.38755701 389.2431972 646.38906722 385.87853345 646.38670707 382.51365471 C646.3862985 378.8816176 646.39734188 375.24961223 646.4068222 371.61758995 C646.42342498 364.50429674 646.42893144 357.39103669 646.43004696 350.27772573 C646.43099784 344.49419657 646.43511014 338.71067833 646.44144821 332.92715263 C646.45905918 316.52266915 646.46828739 300.11821181 646.46678726 283.7137188 C646.46670735 282.82961377 646.46662744 281.94550875 646.4665451 281.03461266 C646.46646334 280.14942557 646.46638158 279.26423848 646.46629734 278.35222754 C646.46548463 264.01009728 646.48461884 249.6680721 646.51282184 235.32597223 C646.5415651 220.59262482 646.55536132 205.85932863 646.55363429 191.12595248 C646.55297085 182.85711082 646.5584427 174.58837929 646.57999039 166.31956291 C646.59822124 159.2785283 646.60253399 152.23765373 646.58897154 145.19660571 C646.58245123 141.6064407 646.58229028 138.01658255 646.59967804 134.42644691 C646.6183624 130.52838063 646.60582953 126.63075998 646.59041595 122.73267174 C646.60584664 121.04324955 646.60584664 121.04324955 646.62158906 119.31969762 C646.51929112 107.59392612 642.42664544 99.14130118 634.57640839 90.60492516 C626.38849561 82.7756071 616.03768128 80.50587008 605.05872154 80.63085651 C603.32537025 80.6204051 603.32537025 80.6204051 601.55700177 80.60974255 C598.37165183 80.59554673 595.18727944 80.60350539 592.0019765 80.6211325 C588.52832667 80.63479014 585.05478176 80.61927766 581.58114159 80.60758168 C575.50052862 80.59110113 569.42014245 80.59311138 563.33952713 80.60740852 C554.29747167 80.62861046 545.25559646 80.62112612 536.21353376 80.60803331 C520.06344922 80.58559215 503.91346942 80.59156299 487.76338479 80.60946941 C473.63137945 80.62504111 459.49941083 80.63088836 445.36739731 80.6271286 C444.42973031 80.6268918 443.49206332 80.626655 442.52598218 80.62641102 C438.71964007 80.62543609 434.91329798 80.62441528 431.10695591 80.62332592 C395.40799671 80.61324505 359.70910199 80.63150203 324.01015795 80.66304628 C292.29475117 80.69091107 260.57942106 80.69586821 228.86400604 80.68085289 C220.74139599 80.67703044 212.61878594 80.67323564 204.49617577 80.6696825 C203.49618081 80.66924469 202.49618585 80.66880687 201.46588801 80.66835579 C174.9616309 80.65711661 148.45737943 80.66446433 121.95312417 80.67756325 C119.10135032 80.67895182 116.24957648 80.68033253 113.39780263 80.68170167 C111.50602685 80.68261105 109.61425107 80.68353372 107.72247531 80.68446978 C93.59807348 80.69126564 79.47369379 80.68860537 65.34929276 80.68152237 C49.29072266 80.67355736 33.23222975 80.68011683 17.1736766 80.70569741 C8.18632491 80.7196235 -0.8008714 80.72260113 -9.78822561 80.7097627 C-15.79129833 80.70230214 -21.79424019 80.70939117 -27.7972874 80.72832082 C-31.21763129 80.73870537 -34.63766245 80.74283668 -38.05800261 80.72934227 C-41.74515159 80.71817435 -45.43142896 80.7315558 -49.11852455 80.75111103 C-50.70559341 80.7374928 -50.70559341 80.7374928 -52.32472426 80.72359946 C-64.27848238 80.84745121 -74.13171207 85.48736915 -81.91577911 94.61664391 Z " fill="#FCFEFE" transform="translate(426.90406036376953,678.7427310943604)"/>
<path d="M0 0 C209.22 0 418.44 0 634 0 C634 53.84210526 634 53.84210526 622.7734375 65.265625 C610.105902 76.12351257 596.85105736 75.57325811 580.99119568 75.50120544 C578.62531499 75.50510019 576.25943664 75.51074203 573.89356381 75.51797634 C568.08397912 75.5311795 562.2746197 75.52583706 556.46503999 75.51258337 C549.50238706 75.49774555 542.53981094 75.50621379 535.57715517 75.51536357 C521.93650161 75.53253831 508.29592852 75.52702574 494.65527664 75.51200638 C482.71865932 75.49894815 470.7820699 75.49375988 458.84544563 75.49632454 C457.65719165 75.49656516 457.65719165 75.49656516 456.44493254 75.49681065 C453.22916859 75.49747425 450.01340465 75.49817666 446.79764072 75.49893599 C416.64016399 75.50595783 386.48273638 75.49047587 356.32527215 75.46431253 C329.53755208 75.44119576 302.749886 75.43581036 275.9621582 75.44604492 C269.10182161 75.44864698 262.24148501 75.451232 255.38114834 75.45364285 C254.53653488 75.45394029 253.69192142 75.45423774 252.82171362 75.4545442 C230.43093847 75.46216028 208.04016775 75.45574589 185.64939457 75.44494683 C183.23993646 75.44379903 180.83047835 75.44265585 178.42102023 75.44152 C176.82268444 75.44076475 175.22434865 75.43999911 173.62601287 75.43922299 C161.6967861 75.43356654 149.7675733 75.43489333 137.83834648 75.43945122 C124.27390196 75.44456025 110.70950972 75.43870053 97.14507823 75.41855692 C90.22340289 75.40854222 83.30180503 75.40319767 76.38012505 75.41144943 C70.04474467 75.41850148 63.70953602 75.41171243 57.3741783 75.3938458 C55.08161545 75.38979829 52.78903697 75.39080624 50.49647992 75.39736467 C47.38028325 75.40551676 44.26466493 75.39519973 41.14850521 75.38031673 C39.81369199 75.39042321 39.81369199 75.39042321 38.45191285 75.40073386 C27.10343116 75.29592898 18.42902174 71.57948255 10 64 C-5.71059826 46.20766615 0 22.20862872 0 0 Z " fill="#0194D9" transform="translate(388,1092)"/>
<path d="M0 0 C0.98108666 -0.00205263 1.96217333 -0.00410527 2.97298989 -0.0062201 C6.27443891 -0.01189361 9.57584626 -0.0104324 12.87729931 -0.00901413 C15.26274656 -0.01159758 17.64819339 -0.01461068 20.03363961 -0.01801753 C25.91119128 -0.02524608 31.78873452 -0.02779029 37.6662896 -0.02834659 C44.70666845 -0.02926084 51.7470389 -0.03593029 58.78741414 -0.04269341 C75.80539298 -0.05875099 92.82337092 -0.0646568 109.84135597 -0.06944216 C117.89483041 -0.07177874 125.94830414 -0.07538151 134.00177803 -0.07913754 C161.57816256 -0.09197396 189.15454669 -0.10269217 216.73093414 -0.10614014 C218.46197176 -0.10636177 220.19300938 -0.10658355 221.924047 -0.10680549 C223.65923733 -0.10702613 225.39442766 -0.10724661 227.12961799 -0.10746694 C230.61063119 -0.10790949 234.09164439 -0.1083566 237.57265759 -0.10880661 C238.43574613 -0.108916 239.29883467 -0.10902539 240.1880774 -0.1091381 C268.16021428 -0.11276699 296.13232522 -0.12868022 324.10445216 -0.15199697 C353.68847887 -0.17661218 383.27249075 -0.1903138 412.85652798 -0.19150805 C416.1064448 -0.1916795 419.35636161 -0.19189493 422.60627842 -0.19214249 C423.4064805 -0.19219826 424.20668259 -0.19225402 425.03113322 -0.19231148 C437.8907695 -0.19346058 450.7503791 -0.20447074 463.61000638 -0.21902954 C476.54573336 -0.23342078 489.48142626 -0.23661676 502.41715906 -0.22858956 C510.09436744 -0.22414537 517.77146555 -0.2279452 525.44865936 -0.24382807 C531.19355433 -0.25477828 536.93835165 -0.24989893 542.68324282 -0.2390562 C544.99829155 -0.23710269 547.31335145 -0.24016152 549.62838451 -0.24890056 C572.16908215 -0.32856339 593.94135836 0.84932874 611.25112438 17.13142776 C611.81186657 17.65091995 612.37260876 18.17041214 612.95034313 18.70564651 C620.77625631 26.86020697 625.40327351 38.49915327 625.39156628 49.57608414 C625.39602296 50.88439926 625.39602296 50.88439926 625.40056968 52.219145 C625.40926837 55.15321307 625.41076591 58.08724039 625.41225719 61.02132034 C625.41688453 63.12037621 625.42190907 65.21943123 625.42730236 67.31848526 C625.44043621 73.02927183 625.4468732 78.74004664 625.45131302 84.45084596 C625.45424204 88.01702486 625.45834652 91.58320054 625.46281719 95.14937782 C625.47649447 106.30223444 625.4861601 117.4550837 625.49001908 128.60794812 C625.4945011 141.49144981 625.51205478 154.37484547 625.54101968 167.25831491 C625.5626201 177.21083063 625.57272248 187.16331648 625.5740602 197.1158554 C625.57510937 203.06288359 625.58104098 209.00981216 625.59887981 214.95681572 C625.61533218 220.55051455 625.61752974 226.14403854 625.60874081 231.73775291 C625.60796892 233.79125053 625.61233298 235.84475744 625.62219906 237.89823151 C625.6348757 240.70097043 625.62906499 243.50308611 625.61861706 246.30582047 C625.62667346 247.11895999 625.63472987 247.93209952 625.64303041 248.76987964 C625.60070492 253.62260759 624.89509288 256.90645165 622.25112438 261.13142776 C618.78583984 263.94885476 615.00155516 265.02792007 610.62612438 265.63142776 C606.40133956 265.00553372 604.44803523 263.97312629 601.25112438 261.13142776 C597.58098473 255.67292594 596.67232218 250.77929842 596.75905895 244.31328201 C596.75204047 243.03531067 596.75204047 243.03531067 596.7448802 241.73152173 C596.73400504 238.89559692 596.75139407 236.06057141 596.76870251 233.22468948 C596.76651525 231.1840069 596.76251639 229.14332557 596.75684643 227.10264969 C596.74829638 222.71775637 596.75204404 218.33310809 596.76526928 213.94822693 C596.78562835 207.01483796 596.77561951 200.08169531 596.76101208 193.14830399 C596.73427409 178.43432309 596.74098719 163.72042252 596.75112438 149.00642776 C596.76206968 133.11405258 596.76733051 117.2218042 596.73382998 101.32945073 C596.72044786 94.43661798 596.72642802 87.54415479 596.74719524 80.65134406 C596.75617246 76.36592005 596.74871533 72.08063898 596.73678303 67.79522705 C596.73465006 65.8078399 596.73938606 63.82043174 596.75148869 61.83308029 C596.76707895 59.12020341 596.75814329 56.40846175 596.74318981 53.69560623 C596.75367871 52.90922299 596.7641676 52.12283975 596.77497435 51.31262672 C596.69967646 45.17899894 594.68150453 41.73176457 590.57534313 37.33845901 C582.2687329 30.2609892 574.22865994 28.97998219 563.57730198 28.99720669 C562.59219483 28.99485446 561.60708769 28.99250223 560.59212881 28.99007872 C557.27104205 28.98338949 553.94999442 28.98384692 550.62890148 28.98425674 C548.23179141 28.98095808 545.83468189 28.97723251 543.43757308 28.97311527 C537.52749084 28.96414013 531.61741565 28.95986769 525.70732804 28.9575963 C518.62910575 28.95463353 511.55089339 28.94593571 504.47267631 28.93718202 C487.36443666 28.91634022 470.25619529 28.90586844 453.14794591 28.89705241 C445.05483132 28.89284574 436.96171748 28.88762379 428.86860351 28.88236788 C401.16582742 28.86447839 373.46305112 28.84948208 345.76027012 28.84204769 C344.02117218 28.84157293 342.28207424 28.84109705 340.5429763 28.84062003 C339.68054037 28.84038365 338.81810444 28.84014728 337.92953409 28.83990374 C333.56000559 28.83870254 329.19047709 28.83748709 324.8209486 28.83626175 C323.95380293 28.8360216 323.08665727 28.83578145 322.19323446 28.83553402 C294.075464 28.8276403 265.9577357 28.80420661 237.83998366 28.77170581 C208.11329627 28.73740798 178.38663356 28.71769663 148.65992606 28.71440345 C145.3966205 28.71398591 142.13331496 28.71350635 138.87000942 28.71298027 C137.66473029 28.71279548 137.66473029 28.71279548 136.43510207 28.71260696 C123.50447813 28.71027496 110.57390318 28.69461507 97.6432967 28.67413842 C84.64593416 28.6538826 71.64863046 28.64840199 58.65125506 28.65790906 C50.93054317 28.66312485 43.21002719 28.65724289 35.48934351 28.63537439 C29.72268217 28.62027556 23.95619272 28.62610722 18.18953545 28.64004491 C15.85773816 28.64243009 13.52592207 28.63805049 11.19415359 28.62621626 C-8.49295509 28.38736166 -8.49295509 28.38736166 -25.74887562 37.13142776 C-30.89978175 42.8546568 -32.04507674 46.87174871 -32.00043201 54.50651932 C-32.00340215 55.35916607 -32.00637229 56.21181281 -32.00943244 57.09029734 C-32.01708135 59.95222002 -32.01057475 62.813938 -32.00424671 65.67586136 C-32.00699618 67.72580479 -32.01067581 69.77574716 -32.01521778 71.82568741 C-32.02333524 76.24277434 -32.02549687 80.65981063 -32.02327061 85.0769043 C-32.02044094 92.06034111 -32.03477645 99.04367647 -32.05225086 106.02708817 C-32.09931131 125.88607128 -32.12322143 145.74504763 -32.12973499 165.60408401 C-32.13348357 176.57000743 -32.15149686 187.53581622 -32.18482935 198.50169051 C-32.20506837 205.44466021 -32.20740128 212.38733479 -32.19654918 219.33032203 C-32.19394444 223.64963815 -32.2079346 227.968782 -32.22663021 232.28805351 C-32.23195849 234.29155157 -32.23044459 236.29508123 -32.22159481 238.29856682 C-32.21048791 241.0335805 -32.22388854 243.76742667 -32.24335194 246.50236893 C-32.23422728 247.29537159 -32.22510262 248.08837426 -32.21570146 248.90540731 C-32.28754151 254.09257203 -33.35797582 256.99773034 -36.74887562 261.13142776 C-40.67518512 264.52233142 -43.69860009 265.80606186 -48.79575062 265.51424026 C-53.34804384 264.62199079 -56.03326278 262.00305885 -58.88858414 258.52521896 C-61.22515811 254.26252989 -61.3128202 251.22704344 -61.26353931 246.45576859 C-61.27048484 245.59480686 -61.27743037 244.73384513 -61.28458637 243.84679365 C-61.30285028 240.96809918 -61.29259349 238.09022942 -61.28232288 235.21150589 C-61.28938202 233.14468647 -61.29812702 231.07787223 -61.30843067 229.01106644 C-61.33094471 223.39900584 -61.32797865 217.78722705 -61.3191092 212.17513847 C-61.31399735 207.48383788 -61.32129419 202.79259015 -61.32858127 198.10129499 C-61.34558952 187.02470373 -61.34200839 175.94825017 -61.32529163 164.87166214 C-61.30840083 153.46662212 -61.32416105 142.0619657 -61.35651451 130.65696764 C-61.3832718 120.85116011 -61.39046891 111.04547153 -61.38199943 101.23963118 C-61.37708426 95.38959851 -61.37920829 89.53979614 -61.39978695 83.68979263 C-61.41823816 78.18043006 -61.41207022 72.67161479 -61.38758755 67.16228104 C-61.38260797 65.1492375 -61.38599448 63.13615161 -61.398736 61.12314224 C-61.49051 45.36690515 -59.94568994 32.22495665 -48.74887562 20.13142776 C-48.21520374 19.51912308 -47.68153187 18.90681839 -47.13168812 18.27595901 C-34.87635616 4.9944629 -17.58982755 -0.03420676 0 0 Z " fill="#FBFDFE" transform="translate(422.74887561798096,786.8685722351074)"/>
<path d="M0 0 C3.65528009 1.85995588 5.73720949 4.60581424 8 8 C8.29991069 10.58885171 8.50865225 13.09149082 8.625 15.6875 C8.66367187 16.38939453 8.70234375 17.09128906 8.7421875 17.81445312 C8.8362334 19.54254655 8.9191968 21.27123675 9 23 C9.97582031 22.15695312 10.95164062 21.31390625 11.95703125 20.4453125 C13.24211231 19.33845436 14.5272727 18.23168833 15.8125 17.125 C16.45509766 16.56941406 17.09769531 16.01382813 17.75976562 15.44140625 C18.69272461 14.63896484 18.69272461 14.63896484 19.64453125 13.8203125 C20.21534424 13.32805176 20.78615723 12.83579102 21.37426758 12.32861328 C25.34277896 9.08538773 27.69038778 8.56246876 32.6484375 8.68359375 C37.44918579 9.32954161 40.71917202 11.55390389 43.9375 15.1875 C45.45756463 19.2112005 45.66364982 22.75414943 45 27 C40.90502228 35.18995544 32.98655775 40.89687881 25.9921875 46.515625 C22.16124621 49.69640654 18.51388569 53.05120614 14.8840332 56.45800781 C11.19617483 59.90191258 11.19617483 59.90191258 9 61 C8.67 70.9 8.34 80.8 8 91 C11.63 89.68 15.26 88.36 19 87 C23.4831543 86.10668945 23.4831543 86.10668945 25.56465149 85.72782898 C31.06841178 84.59351815 35.49017487 83.32026156 38.79541016 78.54443359 C41.24279914 74.27605425 43.03178628 69.76369164 44.8125 65.1875 C45.46620909 63.63751665 46.12568719 62.08995328 46.79101562 60.54492188 C48.01287648 57.69317697 49.19631485 54.83109494 50.34692383 51.94995117 C55.73197377 38.78578943 55.73197377 38.78578943 62 36 C67.05609262 35.20947086 70.81779171 35.4196432 75.4375 37.6875 C79.30564904 41.17826864 80.84916325 43.3150431 81.3203125 48.578125 C81.24564538 53.77163791 79.22254277 57.88972546 77 62.5 C76.6184375 63.32242188 76.236875 64.14484375 75.84375 64.9921875 C74.90916905 67.00153653 73.96127038 69.0033187 73 71 C73.60835693 70.78851318 74.21671387 70.57702637 74.84350586 70.35913086 C76.04825562 69.94739624 76.04825562 69.94739624 77.27734375 69.52734375 C78.46831665 69.11730103 78.46831665 69.11730103 79.68334961 68.69897461 C84.68435597 67.19008208 88.55912616 67.58557839 93.25 69.6875 C96.73280592 71.6381413 98.64781956 73.11248122 100 77 C100.6684248 82.05126081 100.57847183 85.82163146 98.3125 90.4375 C93.33529142 95.95278518 88.08686605 96.83032308 81 98 C81 98.66 81 99.32 81 100 C81.71027344 100.26167969 82.42054688 100.52335938 83.15234375 100.79296875 C86.16034374 102.06796463 88.79572321 103.57701136 91.5625 105.3125 C92.49191406 105.88613281 93.42132812 106.45976563 94.37890625 107.05078125 C97.71886115 109.53459271 100.13504593 112.27009186 102 116 C102.40454634 121.25910247 101.79068106 124.51497687 99 129 C96.24094459 132.19015782 94.31027567 133.66221497 90.0546875 134.28442383 C83.31504603 134.62487839 79.44308629 132.45473096 74 128.6875 C73.18692383 128.1522168 72.37384766 127.61693359 71.53613281 127.06542969 C68.19560775 124.86127852 64.89020518 122.60720341 61.58398438 120.35205078 C60.04162203 119.30297515 58.49549825 118.25940416 56.9453125 117.22192383 C55.51793531 116.26488901 54.10052496 115.29275908 52.6953125 114.3034668 C48.3144649 111.35653956 45.43001782 110.34068512 40 111 C36.80552521 111.76403232 36.80552521 111.76403232 33.6875 112.875 C28.16639567 114.67702711 22.72042077 116.01861856 17 117 C20.42210282 123.64608389 24.46015383 129.79983735 28.69677734 135.94555664 C32 140.79049135 32 140.79049135 32 143 C33.17820312 142.96390625 34.35640625 142.9278125 35.5703125 142.890625 C42.40160582 142.89596821 49.11326847 143.85555575 55.875 144.75 C57.17308594 144.90726563 58.47117187 145.06453125 59.80859375 145.2265625 C78.68032853 147.70216848 78.68032853 147.70216848 83.85546875 152.84326172 C86.46139757 156.28954784 87.34276243 159.3205626 87.125 163.625 C86.26381449 168.32902271 84.48015065 170.75713235 81 174 C77.38996061 175.79165197 74.70071695 176.21056824 70.69921875 175.9765625 C69.72275391 175.925 68.74628906 175.8734375 67.74023438 175.8203125 C66.73283203 175.75585938 65.72542969 175.69140625 64.6875 175.625 C63.66076172 175.56828125 62.63402344 175.5115625 61.57617188 175.453125 C59.05002774 175.31213091 56.52494999 175.16076818 54 175 C54.5053125 175.68964844 55.010625 176.37929688 55.53125 177.08984375 C62.06908695 186.54635791 62.06908695 186.54635791 61.4921875 192.99609375 C60.4230705 197.34892727 58.14538701 200.01823971 54.8125 202.875 C50.7994537 204.48021852 47.26250942 204.67778418 43 204 C36.75271168 200.81741916 33.40840064 195.96470112 30 190 C29.56033498 191.29093133 29.12344701 192.58280836 28.6875 193.875 C28.41035156 194.69226562 28.13320313 195.50953125 27.84765625 196.3515625 C27.28718762 198.10270411 26.7730289 199.86941473 26.30859375 201.6484375 C24.49162148 208.56331481 22.04563671 211.96957553 16 216 C11.76632027 216.76975995 7.70201132 216.92865216 3.859375 214.83203125 C0.47394141 212.06536388 -2.20007101 209.39960947 -3 205 C-2.76918898 198.12008658 -1.30001878 191.8907676 0.8125 185.375 C1.3526606 183.6309499 1.89038933 181.8861449 2.42578125 180.140625 C2.82337646 178.84995117 2.82337646 178.84995117 3.22900391 177.53320312 C4.38166956 173.74597739 5.47584889 169.94892023 6.5 166.125 C6.8403125 164.89007812 7.180625 163.65515625 7.53125 162.3828125 C8.48934149 155.46858556 4.79089651 150.83681975 1 145.4375 C-4.42376124 137.66602497 -4.42376124 137.66602497 -6 133 C-6.66 133 -7.32 133 -8 133 C-8.27400635 133.59167969 -8.5480127 134.18335938 -8.83032227 134.79296875 C-9.95651797 136.91795501 -11.13559333 138.50979358 -12.71484375 140.3125 C-13.49698242 141.21355469 -13.49698242 141.21355469 -14.29492188 142.1328125 C-14.83697266 142.74898437 -15.37902344 143.36515625 -15.9375 144 C-17.01023685 145.22818734 -18.08188313 146.45732824 -19.15234375 147.6875 C-19.62663818 148.22761719 -20.10093262 148.76773438 -20.58959961 149.32421875 C-21.05503174 149.87722656 -21.52046387 150.43023438 -22 151 C-22.56428711 151.58692627 -23.12857422 152.17385254 -23.70996094 152.77856445 C-25.5844928 156.00649129 -24.99979921 158.19510712 -24.48828125 161.85546875 C-24.39999557 162.51654129 -24.3117099 163.17761383 -24.2207489 163.85871887 C-23.93412512 165.97090369 -23.62325614 168.07874595 -23.3125 170.1875 C-23.12154428 171.58638425 -22.93207609 172.98547241 -22.74414062 174.38476562 C-21.79069767 181.33888232 -20.60800918 188.16774766 -19 195 C-18.37091726 200.97628601 -19.66891601 205.10264473 -23 210 C-26.13009063 213.0352394 -29.15911831 213.29143784 -33.375 213.5625 C-38.38772404 213.41367419 -41.20002198 212.34432273 -44.703125 208.7578125 C-46.78480369 205.93626006 -47.37931553 203.44197752 -48 200 C-48.17015625 199.08089844 -48.3403125 198.16179687 -48.515625 197.21484375 C-48.86941601 195.29679108 -49.21015626 193.37626543 -49.53515625 191.453125 C-49.96653235 188.87694384 -49.96653235 188.87694384 -51 186 C-51.43570313 186.54269531 -51.87140625 187.08539062 -52.3203125 187.64453125 C-56.8041903 193.03100783 -60.21327103 196.51805268 -67.4375 197.4375 C-72.46117101 196.82055795 -75.94091883 195.27737918 -79.36328125 191.4921875 C-82.00713489 187.58546219 -82.62240646 184.06107965 -81.89453125 179.421875 C-80.09059766 174.53786265 -76.47589301 170.79260307 -73 167 C-73.85380249 166.98598145 -73.85380249 166.98598145 -74.72485352 166.97167969 C-77.33823653 166.91753831 -79.94991242 166.83398255 -82.5625 166.75 C-83.45775391 166.73582031 -84.35300781 166.72164062 -85.27539062 166.70703125 C-92.2128758 166.45291091 -97.02324338 165.16880543 -101.9375 159.9375 C-103.61224364 155.30732641 -103.65138512 150.85977216 -103 146 C-100.59007606 141.55090966 -97.64206043 139.83543667 -93 138 C-89.5470146 137.65693457 -86.13277768 137.77212447 -82.66796875 137.875 C-80.63217968 137.89171299 -78.59636913 137.90595877 -76.56054688 137.91796875 C-73.37304574 137.95084223 -70.18905258 137.99995501 -67.00268555 138.09228516 C-54.65691598 139.06555371 -54.65691598 139.06555371 -43.70361328 134.67993164 C-41.42058755 131.89324891 -39.69073503 129.17310385 -38 126 C-37.16631284 124.91181577 -36.30820002 123.84090445 -35.40625 122.80859375 C-34.7771875 122.02613281 -34.148125 121.24367188 -33.5 120.4375 C-32.8503125 119.63183594 -32.200625 118.82617188 -31.53125 117.99609375 C-29.96068062 116.07933497 -29.96068062 116.07933497 -29 114 C-30.155 113.649375 -31.31 113.29875 -32.5 112.9375 C-35.75869803 111.87375303 -38.87148151 110.63340667 -41.984375 109.20703125 C-42.68626953 108.88677979 -43.38816406 108.56652832 -44.11132812 108.23657227 C-45.52171328 107.58595966 -46.92688041 106.9238971 -48.32617188 106.24975586 C-52.46998 104.3420881 -54.65516217 103.72506093 -59 105 C-61.57527369 106.1365357 -64.08451765 107.30993986 -66.6015625 108.5625 C-67.31984222 108.9138501 -68.03812195 109.2652002 -68.77816772 109.62719727 C-71.06316757 110.74601578 -73.34422009 111.87260731 -75.625 113 C-77.91356753 114.12601369 -80.2029299 115.25036958 -82.49325562 116.37280273 C-83.91567491 117.07044468 -85.33696512 117.77039454 -86.75698853 118.47290039 C-92.97147207 121.53065281 -98.06540905 123.11373733 -105 122 C-108.78251934 119.94308255 -111.21967245 117.23551862 -113.5 113.625 C-114.2016116 109.94153911 -114.267735 106.52290177 -113 103 C-109.27139514 97.52315824 -105.0590392 95.0189355 -99.1875 92.125 C-98.00510742 91.52171875 -98.00510742 91.52171875 -96.79882812 90.90625 C-94.87203041 89.9253348 -92.93683538 88.96094369 -91 88 C-91.81984375 87.63648438 -92.6396875 87.27296875 -93.484375 86.8984375 C-104.84705091 81.59766764 -104.84705091 81.59766764 -107 76 C-107.79719602 71.62991638 -108.03544983 67.8203876 -105.7890625 63.87109375 C-102.40202595 59.75335134 -99.3083123 57.3297589 -93.9375 56.5625 C-88.39377721 57.1784692 -83.93740144 59.5000499 -79 62 C-79.64341966 59.70763041 -80.2896226 57.41610969 -80.9375 55.125 C-81.21110352 54.14853516 -81.21110352 54.14853516 -81.49023438 53.15234375 C-82.51892693 49.49203515 -82.51892693 49.49203515 -84 46 C-84.28077013 40.29100737 -84.49272659 35.89322006 -80.58984375 31.36328125 C-77.58934736 28.4311333 -75.2186574 26.60184385 -70.9375 26.4375 C-65.87321371 27.16096947 -62.62278497 28.33034977 -59.03027344 32.02661133 C-56.35932162 35.93829028 -55.13929373 39.88232228 -53.765625 44.38671875 C-53.34129181 45.73404839 -53.34129181 45.73404839 -52.90838623 47.1085968 C-52.31514689 48.99893843 -51.72712887 50.89092568 -51.14404297 52.78442383 C-50.24886566 55.69118335 -49.33879936 58.59294094 -48.42578125 61.49414062 C-47.8506983 63.3330633 -47.2764501 65.17224727 -46.703125 67.01171875 C-46.43131409 67.88253586 -46.15950317 68.75335297 -45.87945557 69.65055847 C-45.63209656 70.45511978 -45.38473755 71.25968109 -45.12988281 72.08862305 C-44.91100403 72.7974614 -44.69212524 73.50629974 -44.46661377 74.23661804 C-44 76 -44 76 -44 78 C-42.845 78.350625 -41.69 78.70125 -40.5 79.0625 C-33.1191417 81.50304063 -26.09319808 84.84084455 -19 88 C-19 79.09 -19 70.18 -19 61 C-20.32 60.34 -21.64 59.68 -23 59 C-24.9036109 57.34530108 -26.73926434 55.67574806 -28.5625 53.9375 C-32.49116206 50.25479479 -36.47622691 46.7380871 -40.6875 43.375 C-55.48480327 31.43407022 -55.48480327 31.43407022 -56.23828125 24.94921875 C-56.41915946 19.43719317 -55.78759517 16.29943235 -52 12 C-48.34616988 8.77603224 -44.51278256 8.19887217 -39.76171875 8.3125 C-34.09771663 9.72249204 -30.17489182 14.12652126 -26 18 C-25.06800781 18.71671875 -24.13601563 19.4334375 -23.17578125 20.171875 C-22.45777344 20.77515625 -21.73976563 21.3784375 -21 22 C-21 22.66 -21 23.32 -21 24 C-20.34 24 -19.68 24 -19 24 C-19.10441406 22.38931641 -19.10441406 22.38931641 -19.2109375 20.74609375 C-19.79753766 7.78770109 -19.79753766 7.78770109 -16.125 3.5625 C-11.36865117 -0.8376971 -6.25581519 -0.80293256 0 0 Z " fill="#FCFEFE" transform="translate(711,830)"/>
<path d="M0 0 C0.82634156 -0.00327219 1.65268312 -0.00654439 2.50406533 -0.00991574 C3.86054393 -0.0076903 3.86054393 -0.0076903 5.24442613 -0.00541991 C6.21179529 -0.00777214 7.17916445 -0.01012437 8.17584783 -0.01254788 C11.44260662 -0.01924603 14.7093257 -0.01877941 17.97609079 -0.01836985 C20.33180251 -0.02166796 22.68751367 -0.02539342 25.0432241 -0.02951133 C30.85475836 -0.03849176 36.66628546 -0.04275992 42.47782519 -0.0450303 C49.43724372 -0.04799152 56.39665213 -0.05668845 63.35606536 -0.06544458 C80.17804719 -0.08629307 97.00003078 -0.09675933 113.82202253 -0.10557419 C121.77903529 -0.10978004 129.7360473 -0.1150021 137.69305943 -0.12025872 C164.92738879 -0.13814907 192.16171836 -0.15314547 219.39605272 -0.16057891 C221.10596942 -0.16105366 222.81588612 -0.16152955 224.52580281 -0.16200657 C225.37377253 -0.16224294 226.22174225 -0.16247932 227.09540803 -0.16272286 C231.39168502 -0.16392407 235.687962 -0.16513951 239.98423898 -0.16636485 C241.26315531 -0.16672507 241.26315531 -0.16672507 242.56790833 -0.16709258 C270.21433387 -0.17498628 297.86071653 -0.1984195 325.50712334 -0.23092079 C354.73207644 -0.26521515 383.95700443 -0.28492967 413.18197799 -0.28822315 C416.3899539 -0.28864069 419.5979298 -0.28912025 422.8059057 -0.28964633 C423.99075846 -0.28983111 423.99075846 -0.28983111 425.19954765 -0.29001964 C437.91377329 -0.29235212 450.62794914 -0.30801476 463.34215703 -0.32848817 C476.12118412 -0.34873956 488.90015137 -0.35422673 501.67919154 -0.34471754 C508.60287601 -0.33995927 515.52641288 -0.3415988 522.45007455 -0.36147898 C528.78761252 -0.37904079 535.12486984 -0.37816951 541.46241049 -0.36258169 C543.75586218 -0.36019502 546.04933295 -0.36458371 548.34275539 -0.37641034 C551.46037516 -0.39149211 554.57699577 -0.38188171 557.69459093 -0.36618346 C558.58486299 -0.37640567 559.47513506 -0.38662787 560.39238507 -0.39715984 C570.28436985 -0.28846077 579.30458967 3.80153014 586.84703195 10.12880117 C591.38464022 14.95217485 593.72338137 18.75784943 595.84703195 25.12880117 C388.60703195 25.12880117 181.36703195 25.12880117 -32.15296805 25.12880117 C-28.30582287 13.58736564 -21.21299424 7.99183437 -10.84046805 2.31630117 C-7.15193427 0.68648392 -4.02413381 0.00418304 0 0 Z " fill="#0295D9" transform="translate(423.1529680490494,706.8711988329887)"/>
<path d="M0 0 C9.94766054 6.48629605 17.20778448 15.03996701 21.06640625 26.34375 C22.80513827 36.20236055 22.4725966 46.77744819 17.45703125 55.55859375 C17.03292969 56.32429687 16.60882813 57.09 16.171875 57.87890625 C9.93019085 68.13682727 0.77774396 75.1392407 -10.890625 78.16796875 C-20.84733016 79.63434653 -30.62310609 79.55746599 -39.54296875 74.55859375 C-40.30996094 74.14609375 -41.07695312 73.73359375 -41.8671875 73.30859375 C-51.13253377 67.77140888 -57.17626122 59.37696544 -60.69140625 49.25 C-63.70927233 36.16796586 -62.09287966 24.51733319 -55.00390625 13.07421875 C-42.75338505 -4.22746522 -18.72096611 -10.61142318 0 0 Z " fill="#FCFDFE" transform="translate(494.54296875,854.44140625)"/>
<path d="M0 0 C9.15223974 6.7089427 15.00831336 15.01700624 18 26 C18.81299552 35.56687752 18.88063734 44.46646329 14 53 C13.34644531 54.16595703 13.34644531 54.16595703 12.6796875 55.35546875 C6.52792966 65.38989343 -2.97018917 72.60168224 -14.44140625 75.6484375 C-23.28137677 76.86308994 -31.81686179 76.69509923 -40 73 C-40.68578125 72.70996094 -41.3715625 72.41992188 -42.078125 72.12109375 C-52.76817573 67.24528817 -59.4220387 58.70676921 -63.9375 47.9375 C-66.87246591 37.67434878 -66.35679474 25.25752767 -61.69140625 15.6875 C-56.54631411 7.51238824 -49.64474648 0.57864704 -40.9375 -3.6875 C-39.68259766 -4.31205078 -39.68259766 -4.31205078 -38.40234375 -4.94921875 C-25.9456242 -10.39776763 -11.11708825 -6.86841253 0 0 Z " fill="#FCFDFE" transform="translate(498,950)"/>
<path d="M0 0 C1.06608855 -0.00935994 1.06608855 -0.00935994 2.15371424 -0.01890898 C4.52368136 -0.03480192 6.89261464 -0.02225009 9.2625885 -0.00964355 C10.96638588 -0.0150664 12.67017857 -0.02218997 14.3739624 -0.03088379 C18.99388167 -0.04910222 23.6134432 -0.04205539 28.23336864 -0.02936745 C33.07210288 -0.01923047 37.91080677 -0.02863522 42.74954224 -0.03491211 C50.87601715 -0.04218717 59.00234661 -0.03260523 67.12879944 -0.0135498 C76.51742339 0.00821134 85.90569977 0.00117251 95.29431528 -0.02085543 C103.36075114 -0.03902218 111.42708252 -0.04156129 119.49353224 -0.03110075 C124.30876425 -0.02487189 129.12383304 -0.02401333 133.93905449 -0.0372467 C138.46754108 -0.04882287 142.9955808 -0.04074729 147.52401924 -0.01766968 C149.18362309 -0.01239169 150.8432647 -0.01388078 152.50285339 -0.02272034 C154.7733204 -0.03369633 157.04236698 -0.01988959 159.31274414 0 C161.2160797 0.00226215 161.2160797 0.00226215 163.15786648 0.00457001 C168.32623261 0.73493897 172.13890209 2.7229777 175.65736389 6.69543457 C177.53049711 11.65372839 177.60010172 16.42316076 175.53236389 21.32043457 C172.67614287 24.76759787 169.98610706 27.08585352 165.71986389 28.50793457 C163.42550842 28.60876359 161.12828293 28.6473485 158.83172607 28.65510559 C158.12694164 28.65878228 157.4221572 28.66245897 156.69601566 28.66624707 C154.32855083 28.67728192 151.96112989 28.68112738 149.59364319 28.68493652 C147.89852255 28.69120126 146.20340328 28.69784807 144.50828552 28.70484924 C139.89870796 28.72225634 135.28914077 28.73280996 130.67953849 28.74105477 C127.8001492 28.74620497 124.92076313 28.75228065 122.04137611 28.7585659 C113.03387679 28.77761617 104.02638566 28.79184833 95.01887006 28.80017787 C84.61830094 28.80995428 74.21794442 28.83628503 63.81745023 28.87667876 C55.77999333 28.90682477 47.74259744 28.92164525 39.7050851 28.92495888 C34.90377518 28.92731085 30.10269242 28.93629046 25.3014431 28.96142006 C20.78454433 28.98467969 16.26802266 28.98894256 11.75107956 28.97865868 C10.09426304 28.97816271 8.43742809 28.98450104 6.78066826 28.99821472 C4.51631099 29.01590753 2.25331095 29.00884176 -0.01104736 28.99568176 C-1.91054878 28.99926429 -1.91054878 28.99926429 -3.84842396 29.0029192 C-8.73911377 28.29749398 -11.86085371 26.12298006 -15.09263611 22.44543457 C-17.51972812 18.48544234 -17.66609088 15.06220089 -17.28013611 10.50793457 C-13.45064021 2.99623107 -8.32149489 0.00989321 0 0 Z " fill="#FCFDFE" transform="translate(625.2801361083984,1115.4920654296875)"/>
<path d="M0 0 C4.17635539 1.64833658 8.00015232 3.88920198 10 8 C11.48423811 14.06450414 11.1720795 17.49654804 8 23 C6.72280599 24.79646386 5.40929724 26.56760914 4.0625 28.3125 C-3.28439008 38.4060175 -5.40429066 46.57453532 -4 59 C-1.99125724 66.17546091 2.65827738 71.16941707 7.6640625 76.5078125 C21.42142842 91.18540356 26.76090602 105.18489137 26.37109375 125.1171875 C25.66981797 140.66504552 18.33236391 156.22349786 7.6484375 167.51171875 C4.12594046 170.69198266 1.16847264 171.85394092 -3.5 172.4375 C-8.98136378 171.75232953 -11.78053294 169.37992325 -15.375 165.3125 C-17.47427629 161.03320603 -17.83142293 157.68311689 -17 153 C-15.375 150 -15.375 150 -13 147 C-10.90400764 144.05776473 -8.92236454 141.05830722 -7 138 C-6.57976563 137.34644531 -6.15953125 136.69289063 -5.7265625 136.01953125 C-1.78245802 128.78867303 -1.76664708 120.00023238 -3 112 C-5.40272752 104.51074366 -10.14750753 99.54502229 -15.76171875 94.2421875 C-27.31406318 82.66968191 -33.18613819 67.41474055 -33.5 51.25 C-33.44121173 34.33144799 -26.20457926 18.53905724 -15 6 C-10.09240869 1.30578222 -6.93476924 -0.56842371 0 0 Z " fill="#FCFDFE" transform="translate(910,1223)"/>
<path d="M0 0 C4.28575173 2.26892739 7.5624855 4.7812249 10 9 C10.98171573 14.31929643 10.31410091 18.53244165 7.33984375 23.13671875 C6.34334093 24.52252588 5.33335424 25.89865705 4.31640625 27.26953125 C-1.24834937 34.86871366 -5.87942041 42.95224402 -5.390625 52.67578125 C-3.86596806 61.74749005 0.07115581 69.24749426 6.6875 75.5625 C17.87136464 86.47460719 26.00632627 100.75372613 26.43164062 116.5949707 C26.48187987 136.68020207 19.74796246 153.25940769 6.078125 168.109375 C3.01600748 170.89521124 0.84999187 171.88557802 -3.25 172.4375 C-8.13876853 171.86714367 -11.28074557 170.18314569 -15 167 C-18.0030199 162.6831589 -18.79290588 159.19793852 -18 154 C-15.78680831 149.83862662 -13.02195611 146.17679794 -9.9375 142.625 C-3.12437311 133.39431195 -1.61149137 124.16544545 -3 113 C-5.32565808 104.75448498 -11.27067467 99.09400601 -17 93 C-21.9784777 87.52459477 -25.7779869 81.97866231 -28.9375 75.3125 C-29.37956787 74.38594604 -29.37956787 74.38594604 -29.83056641 73.44067383 C-34.91692543 62.13009827 -35.05701436 44.39648687 -31.09765625 32.62890625 C-26.56157371 21.76490784 -20.6676423 7.85021457 -10.375 1.25 C-6.52136621 -0.17727177 -4.0730274 -0.59244035 0 0 Z " fill="#FCFDFE" transform="translate(608,1223)"/>
<path d="M0 0 C4.26971605 1.81423832 7.27837894 4.03783859 10.0625 7.75 C11.357338 12.23877174 11.50696678 15.54218199 10 20 C8.18157386 22.88585494 6.17734861 25.53023813 4.07421875 28.21484375 C-3.10851721 37.85945907 -5.0162881 47.18714535 -4 59 C-1.49816981 67.93336437 5.44042922 74.46922651 11.85546875 80.84375 C22.72874515 92.18977755 27.51537709 106.95776924 27.25 122.3828125 C26.08690981 139.21127367 18.37900786 157.28653019 6 169 C1.6706595 172.07864214 -1.7047699 172.43366133 -6.81640625 171.640625 C-11.2788532 170.33142768 -13.99370207 167.69241016 -16.375 163.6875 C-17.35591232 159.46957703 -18.06588394 155.19270101 -16.12451172 151.19897461 C-14.90431922 149.4373503 -13.60980027 147.7810603 -12.25 146.125 C-8.06827849 140.69117837 -5.06183061 135.60045145 -3 129 C-2.67 128.01 -2.34 127.02 -2 126 C-0.834057 113.57822261 -5.19713101 105.43267342 -13 96 C-14.16588969 94.81173716 -15.35170174 93.64246879 -16.5625 92.5 C-25.86150409 83.56109402 -32.47444669 69.78995809 -33.16796875 56.87109375 C-33.27955035 37.25504825 -27.94325444 19.21469204 -13.9375 4.890625 C-9.1380716 0.69112515 -6.39791766 -0.61915332 0 0 Z " fill="#FCFDFE" transform="translate(809,1223)"/>
<path d="M0 0 C3.26033777 2.68498405 4.86019812 4.81888388 5.4453125 9.0859375 C5.71004678 14.96303849 4.91188876 18.08921383 1.125 22.75 C-7.21767672 33.93677106 -10.17660571 41.47774205 -8.875 55.75 C-6.95315403 65.06454679 -0.56593415 71.09848547 5.984375 77.59375 C15.97700649 88.04475908 21.5036939 102.39175229 21.375 116.6875 C21.38660156 117.97043945 21.38660156 117.97043945 21.3984375 119.27929688 C21.34450946 136.95421132 12.85755783 152.7785623 1.37109375 165.71875 C-1.78602252 168.57388124 -4.56871004 169.57961435 -8.75 170.125 C-12.85256392 169.63269233 -15.66684519 168.34244833 -18.875 165.75 C-21.87535393 161.68500435 -22.68222257 157.50331301 -22.5625 152.52734375 C-21.37649695 147.73616097 -18.2191264 144.4133431 -15.140625 140.65234375 C-8.20030265 131.7615515 -6.70795055 121.79652751 -7.875 110.75 C-10.39646288 102.49793966 -15.12622241 97.23783291 -21.28125 91.42578125 C-33.5743528 78.74389056 -38.65212474 63.09443431 -38.39477539 45.66967773 C-38.11260583 38.43570489 -37.05724733 32.31226144 -33.875 25.75 C-33.60655273 25.16702148 -33.33810547 24.58404297 -33.06152344 23.98339844 C-28.60184666 14.38743833 -22.97805736 4.33882236 -13.85546875 -1.5546875 C-9.28993944 -3.1575755 -4.30802653 -1.87305501 0 0 Z " fill="#FCFDFE" transform="translate(511.875,1225.25)"/>
<path d="M0 0 C3.66092051 2.06216409 6.79391612 4.89931482 8 9 C8.70610352 16.62591799 5.86475379 20.82996683 1.5625 26.8125 C-4.7096643 35.60413833 -8.03981359 44.14312285 -7 55 C-4.87241936 64.97662813 1.08801966 71.97743098 8.08203125 79.12890625 C12.49290236 83.71377622 15.53013445 88.41371624 18.375 94.0625 C18.70894775 94.72338623 19.04289551 95.38427246 19.38696289 96.06518555 C25.83282746 109.44611717 25.85990806 125.05417687 21 139 C16.35307493 150.28335935 10.21339781 162.88681693 0 170 C-3.66119149 171.24195895 -7.26749965 171.51534257 -10.99609375 170.40625 C-15.59157889 168.11344881 -18.28855166 164.82041071 -20 160 C-20.66267125 155.27846736 -20.20111719 152.5536341 -17.33984375 148.71484375 C-16.89769531 148.14894531 -16.45554687 147.58304688 -16 147 C-7.49962396 135.65959113 -3.23953513 126.53955359 -5 112 C-7.05432859 104.83947967 -11.65660872 99.83236246 -16.6640625 94.4921875 C-29.57524722 80.71737838 -36.92103295 65.49526992 -36.33984375 46.26953125 C-34.66424775 30.1491421 -26.30980765 12.4634615 -14.25 1.5 C-9.55611771 -1.62925486 -5.2972217 -1.32882524 0 0 Z " fill="#FCFDFE" transform="translate(711,1224)"/>
<path d="M0 0 C23.1 0 46.2 0 70 0 C70 23.1 70 46.2 70 70 C46.9 70 23.8 70 0 70 C0 46.9 0 23.8 0 0 Z " fill="#00B2E9" transform="translate(1710,1094)"/>
<path d="M0 0 C23.1 0 46.2 0 70 0 C70 23.1 70 46.2 70 70 C46.9 70 23.8 70 0 70 C0 46.9 0 23.8 0 0 Z " fill="#00B3E9" transform="translate(1776,817)"/>
<path d="M0 0 C23.1 0 46.2 0 70 0 C70 23.1 70 46.2 70 70 C46.9 70 23.8 70 0 70 C0 46.9 0 23.8 0 0 Z " fill="#00B2E8" transform="translate(1670,678)"/>
<path d="M0 0 C0.90763596 -0.0065712 1.81527191 -0.0131424 2.75041199 -0.01991272 C5.75703004 -0.03963948 8.76359819 -0.05130642 11.77026367 -0.0612793 C12.79708441 -0.06535482 13.82390514 -0.06943035 14.88184166 -0.07362938 C20.31575698 -0.09448659 25.74964706 -0.10879033 31.18359375 -0.11816406 C36.79595663 -0.12923301 42.40792354 -0.16363971 48.02014637 -0.20333576 C52.33616372 -0.22947816 56.65208633 -0.23785376 60.96817589 -0.24144554 C63.03702153 -0.24631694 65.10586279 -0.25794663 67.17463112 -0.27648354 C70.07116748 -0.30082606 72.96667395 -0.29991888 75.86328125 -0.29296875 C77.1423082 -0.31218384 77.1423082 -0.31218384 78.44717407 -0.33178711 C83.82253787 -0.28482747 86.85882057 0.61272415 91.12573242 4.17700195 C93.85472084 7.40869877 95.01553281 9.41937964 95.62573242 13.61450195 C95.03598349 17.81646311 94.04310526 21.04027778 91.12573242 24.17700195 C85.56914015 27.98374334 81.5788564 28.76597425 74.92089844 28.72631836 C73.57801758 28.74165115 73.57801758 28.74165115 72.20800781 28.7572937 C69.2649419 28.78496823 66.32281879 28.78318181 63.37963867 28.77856445 C61.32372188 28.78634444 59.26780828 28.79501503 57.2118988 28.80453491 C52.9089006 28.81943365 48.60623068 28.81889546 44.30322266 28.80834961 C38.80068596 28.79675847 33.29949532 28.83063559 27.79718113 28.87703896 C23.55307722 28.90656307 19.30929577 28.9082506 15.06510735 28.9020195 C13.03699005 28.90304331 11.00885409 28.91346989 8.98083687 28.93364334 C6.13966551 28.95844034 3.30109356 28.94475673 0.45996094 28.92163086 C-0.36989822 28.93691833 -1.19975739 28.95220581 -2.05476379 28.96795654 C-8.4350485 28.85370213 -12.31930422 26.60426377 -16.87426758 22.17700195 C-19.25999918 18.3001881 -19.346835 14.66639248 -18.87426758 10.17700195 C-13.90852053 1.27290381 -9.88949779 0.03096557 0 0 Z " fill="#FBFDFE" transform="translate(889.874267578125,923.822998046875)"/>
<path d="M0 0 C0.89510788 -0.00861557 1.79021576 -0.01723114 2.71244812 -0.02610779 C5.66097224 -0.04874418 8.60854394 -0.04203225 11.55712891 -0.03295898 C13.6144743 -0.03819622 15.67181728 -0.04447307 17.72915649 -0.05174255 C22.03813994 -0.06214297 26.34679309 -0.05759125 30.65576172 -0.04296875 C36.16603826 -0.02579645 41.67527052 -0.04925933 47.18543053 -0.08445835 C51.43381606 -0.10646713 55.68195318 -0.10498215 59.93037796 -0.09669304 C61.96127084 -0.09587514 63.99218226 -0.10270746 66.0230217 -0.11746407 C68.86885602 -0.13497073 71.71283261 -0.12031595 74.55859375 -0.09765625 C75.39002396 -0.10934845 76.22145416 -0.12104065 77.07807922 -0.13308716 C83.11258121 -0.03579332 87.2422124 1.67960883 91.90869141 5.53344727 C94.55939215 9.06771492 95.13295616 11.72177659 94.90869141 16.03344727 C94.16832333 20.85804362 92.41654753 23.18874724 88.90869141 26.53344727 C86.14190377 28.18342992 84.10810117 28.78509711 80.89944458 28.8008728 C79.71780731 28.81366776 79.71780731 28.81366776 78.51229858 28.82672119 C77.22955551 28.82536163 77.22955551 28.82536163 75.92089844 28.82397461 C75.01311646 28.83069183 74.10533447 28.83740906 73.17004395 28.84432983 C70.16880827 28.86332921 67.16779598 28.867235 64.16650391 28.86938477 C62.07909045 28.8758113 59.99167791 28.88253955 57.90426636 28.88955688 C53.5279532 28.90153447 49.15171902 28.9052372 44.77539062 28.90405273 C39.17087318 28.90384951 33.56686261 28.93115337 27.96246529 28.96559715 C23.65072306 28.98784735 19.33910318 28.99189085 15.02730942 28.99083328 C12.96126432 28.993192 10.89521599 29.00203076 8.82922745 29.01749802 C5.93754956 29.03711981 3.04696945 29.03133478 0.15527344 29.01928711 C-0.69584015 29.03052612 -1.54695374 29.04176514 -2.42385864 29.05334473 C-7.79307402 28.99657343 -10.81475774 28.07317475 -15.09130859 24.53344727 C-17.98756895 21.23770273 -18.98791157 18.62945572 -19.40380859 14.22094727 C-19.02643898 9.76798576 -17.95883746 7.92920514 -15.09130859 4.53344727 C-10.03082049 0.33157644 -6.29362828 -0.04915919 0 0 Z " fill="#FBFDFE" transform="translate(890.09130859375,867.466552734375)"/>
<path d="M0 0 C0.91928787 -0.00525696 1.83857574 -0.01051392 2.78572083 -0.01593018 C5.81890953 -0.02911417 8.85157175 -0.02039764 11.88476562 -0.01025391 C13.9955658 -0.0122751 16.1063653 -0.01518691 18.21716309 -0.01895142 C22.63882095 -0.02337261 27.06029689 -0.01695019 31.48193359 -0.00292969 C37.14811434 0.01416194 42.81386877 0.00431968 48.48003387 -0.01364708 C52.83806568 -0.02449036 57.19599651 -0.02103604 61.55403137 -0.0132637 C63.64321442 -0.01126321 65.73240665 -0.01371567 67.82157898 -0.02070236 C70.74197661 -0.02832566 73.66168492 -0.01670003 76.58203125 0 C77.87576408 -0.00910904 77.87576408 -0.00910904 79.19563293 -0.0184021 C83.89562612 0.03135992 86.96713359 0.35899407 90.79101562 3.38818359 C93.79319446 6.80733172 95.65593257 9.01033641 96.10351562 13.57568359 C95.74556729 17.94265333 94.79582213 21.14234983 91.79101562 24.38818359 C86.61300627 27.63445092 82.39777399 27.82328654 76.484375 27.79223633 C75.10763359 27.8025312 75.10763359 27.8025312 73.70307922 27.81303406 C70.68014906 27.83128128 67.65773885 27.82746789 64.63476562 27.82177734 C62.52778963 27.82633973 60.42081512 27.83164548 58.31384277 27.83766174 C53.90236355 27.84658847 49.4910654 27.84417416 45.07958984 27.83422852 C39.43026327 27.82273229 33.78156114 27.8429629 28.13231659 27.87214565 C23.78281698 27.89050186 19.43346723 27.89021644 15.0839386 27.88450813 C13.00115584 27.88435489 10.91836294 27.89040194 8.83561707 27.90279961 C5.92256597 27.9176987 3.01067147 27.90704065 0.09765625 27.88989258 C-0.75966599 27.89956055 -1.61698822 27.90922852 -2.50028992 27.91918945 C-7.869207 27.85310204 -10.96360959 26.97871989 -15.20898438 23.38818359 C-18.12701731 19.01113419 -18.84946746 15.60354588 -18.20898438 10.38818359 C-14.69114884 1.21533286 -8.92017499 -0.06280603 0 0 Z " fill="#FDFEFE" transform="translate(889.208984375,979.61181640625)"/>
<path d="M0 0 C3.85554931 1.30943184 5.64640284 2.60918209 8.375 5.625 C10.45494473 9.94488521 10.82730415 13.28943147 10 18 C8.21363013 21.71015281 6.67667982 23.5278978 3.3125 25.875 C-0.94957136 27.32249593 -4.55915493 27.9774477 -9 27 C-12.37277904 24.94618483 -15.21990552 22.56018896 -17 19 C-17.6021891 14.40354395 -18.06807191 9.88966568 -15.73046875 5.75390625 C-10.93023984 0.13612011 -7.26763562 -0.6618083 0 0 Z " fill="#0395D9" transform="translate(478,971)"/>
<path d="M0 0 C3.83378636 1.81233537 5.53351018 3.30026527 7.875 6.8125 C9.6222346 11.76299802 9.63722803 15.34320712 7.75 20.25 C5.31808538 24.07158012 3.26537638 25.57820787 -1 27 C-5.01124819 27.61412521 -8.52597212 27.86257928 -12.109375 25.765625 C-15.75164944 22.72537939 -17.63604291 20.63523358 -18.30859375 15.765625 C-18.56141389 10.83180173 -18.40485038 7.79192271 -15.125 3.9375 C-10.61938947 -0.68782482 -6.25167483 -0.68182629 0 0 Z " fill="#0395D9" transform="translate(479,878)"/>
</svg>
